<?xml version="1.0" encoding="UTF-8"?>
<svg version="1.1" xmlns="http://www.w3.org/2000/svg" width="512" height="512">
<path d="M0 0 C2.57292909 -0.00407406 5.14585643 -0.00942059 7.71878052 -0.01593018 C13.93564098 -0.02915653 20.15239179 -0.02643994 26.36925626 -0.01769225 C31.42919378 -0.01087185 36.48910093 -0.01001762 41.54904175 -0.0132637 C42.27367707 -0.0137234 42.9983124 -0.0141831 43.74490637 -0.01465673 C45.21773633 -0.01561606 46.69056629 -0.01658871 48.16339624 -0.0175745 C61.92148868 -0.02609588 75.67952081 -0.01634565 89.43760335 -0.0001734 C101.20094541 0.01322681 112.9641986 0.01089779 124.72753906 -0.00292969 C138.44187789 -0.01904334 152.15616408 -0.02527221 165.87051105 -0.0160929 C167.33743095 -0.01513741 168.80435085 -0.0141943 170.27127075 -0.0132637 C171.35344097 -0.01256946 171.35344097 -0.01256946 172.45747322 -0.0118612 C177.50176235 -0.00928859 182.54601763 -0.0136046 187.59030151 -0.02070236 C194.39983053 -0.03007487 201.20919059 -0.0232479 208.01870346 -0.00601959 C210.5037496 -0.00208469 212.98880995 -0.00313672 215.47385025 -0.00980759 C233.24063527 -0.05306941 250.71547795 0.5833301 267.66015625 6.51318359 C268.5308374 6.81321289 269.40151855 7.11324219 270.29858398 7.42236328 C284.10077157 12.40348938 294.561427 20.16508383 304.91015625 30.38818359 C305.89048828 31.26023437 305.89048828 31.26023437 306.890625 32.14990234 C312.83994724 37.55466419 316.84216103 44.53427689 320.91015625 51.38818359 C321.40773438 52.22349609 321.9053125 53.05880859 322.41796875 53.91943359 C325.17581221 58.98415239 326.94092024 64.2620172 328.59765625 69.76318359 C328.80036133 70.43454346 329.00306641 71.10590332 329.21191406 71.79760742 C332.06592682 81.80690175 333.20934969 91.73338051 333.17085266 102.11894226 C333.17467821 103.23609409 333.17850376 104.35324591 333.18244523 105.50425082 C333.19268939 109.21390189 333.18879944 112.92339569 333.18481445 116.63305664 C333.18916574 119.30672205 333.1942866 121.98037629 333.20030212 124.65403748 C333.21300159 131.14321233 333.21484869 137.63234572 333.21250186 144.12153091 C333.21071283 149.40190044 333.21248085 154.68225747 333.2167263 159.9626255 C333.21732149 160.71654031 333.21791668 161.47045513 333.21852991 162.24721584 C333.21974177 163.779238 333.2209559 165.31126016 333.22217228 166.84328232 C333.23302999 181.18689185 333.23089401 195.53047784 333.22478744 209.87408868 C333.21962259 222.96305353 333.23086545 236.05194385 333.24988566 249.14089396 C333.26931307 262.61450083 333.27751131 276.08807254 333.2737624 289.56169349 C333.27185743 297.11244492 333.27426863 304.66313299 333.28847694 312.21387291 C333.30045461 318.64372931 333.30172491 325.07348337 333.28968678 331.50334134 C333.28384181 334.77641279 333.28423649 338.04926129 333.29468918 341.32232666 C333.3911094 373.88083706 327.29069253 402.07853463 304.25390625 426.16552734 C289.91167525 439.85392134 272.35774651 448.72795421 252.91015625 452.38818359 C252.05456965 452.55706683 251.19898306 452.72595007 250.3174696 452.89995098 C238.03873471 454.99062316 225.71348835 454.6767075 213.29614258 454.6628418 C210.71409966 454.66719488 208.13205804 454.67238001 205.55001831 454.67832947 C199.29172271 454.69101004 193.03347015 454.69287844 186.77516387 454.6905292 C181.68126274 454.68873807 176.58737455 454.69051264 171.49347496 454.69475365 C170.76538683 454.69534884 170.03729869 454.69594402 169.28714728 454.69655725 C167.80747265 454.69776915 166.32779802 454.69898328 164.84812339 454.70019963 C151.00375112 454.71105001 137.15940327 454.70892482 123.31502964 454.70281478 C110.68989863 454.69765033 98.06484487 454.70889307 85.43972913 454.727913 C72.43387417 454.74735419 59.42805564 454.75553628 46.42218608 454.75178975 C39.13744257 454.74988688 31.85276476 454.75227508 24.56803322 454.76650429 C17.71179587 454.77976244 10.85571457 454.77707336 3.99947739 454.7640934 C1.49669402 454.76174293 -1.0061004 454.76440676 -3.50887108 454.77271652 C-34.26381765 454.86739124 -61.78416487 450.42346502 -86.08984375 430.38818359 C-86.87746094 429.77587891 -87.66507813 429.16357422 -88.4765625 428.53271484 C-109.71860536 411.1461213 -118.0400746 383.76473193 -120.81231737 357.58178258 C-121.64374369 348.01425157 -121.5050739 338.40493432 -121.47802734 328.80981445 C-121.48210487 326.33968373 -121.48745329 323.86955484 -121.49395752 321.39942932 C-121.50609838 315.44814461 -121.50448645 309.49696485 -121.4957196 303.54568332 C-121.48888305 298.69992105 -121.48805175 293.85419049 -121.49129105 289.00842476 C-121.49175075 288.31295118 -121.49221044 287.61747759 -121.49268407 286.90092905 C-121.49364346 285.48713242 -121.4946161 284.07333579 -121.49560185 282.65953917 C-121.50411094 269.47170112 -121.49439225 256.28392613 -121.47820075 243.09609843 C-121.46479869 231.83234467 -121.46713349 220.56868373 -121.48095703 209.30493164 C-121.49708758 196.15563342 -121.50329049 183.00639012 -121.49412024 169.85708338 C-121.49316481 168.44943115 -121.49222169 167.04177891 -121.49129105 165.63412666 C-121.49082822 164.94192304 -121.49036539 164.24971941 -121.48988854 163.53653992 C-121.48732117 158.7080157 -121.49162029 153.87952695 -121.49872971 149.05100822 C-121.50812517 142.52788006 -121.5012384 136.00488442 -121.48404694 129.48177147 C-121.48012305 127.10602351 -121.48114452 124.73026066 -121.48783493 122.35451889 C-121.57760584 87.20229369 -116.29242731 54.87025121 -90.96484375 28.76318359 C-66.1421274 4.14594137 -33.38314783 -0.089614 0 0 Z " fill="#D64664" transform="translate(143.08984375,25.61181640625)"/>
<path d="M0 0 C2.57292909 -0.00407406 5.14585643 -0.00942059 7.71878052 -0.01593018 C13.93564098 -0.02915653 20.15239179 -0.02643994 26.36925626 -0.01769225 C31.42919378 -0.01087185 36.48910093 -0.01001762 41.54904175 -0.0132637 C42.27367707 -0.0137234 42.9983124 -0.0141831 43.74490637 -0.01465673 C45.21773633 -0.01561606 46.69056629 -0.01658871 48.16339624 -0.0175745 C61.92148868 -0.02609588 75.67952081 -0.01634565 89.43760335 -0.0001734 C101.20094541 0.01322681 112.9641986 0.01089779 124.72753906 -0.00292969 C138.44187789 -0.01904334 152.15616408 -0.02527221 165.87051105 -0.0160929 C167.33743095 -0.01513741 168.80435085 -0.0141943 170.27127075 -0.0132637 C171.35344097 -0.01256946 171.35344097 -0.01256946 172.45747322 -0.0118612 C177.50176235 -0.00928859 182.54601763 -0.0136046 187.59030151 -0.02070236 C194.39983053 -0.03007487 201.20919059 -0.0232479 208.01870346 -0.00601959 C210.5037496 -0.00208469 212.98880995 -0.00313672 215.47385025 -0.00980759 C233.24063527 -0.05306941 250.71547795 0.5833301 267.66015625 6.51318359 C268.5308374 6.81321289 269.40151855 7.11324219 270.29858398 7.42236328 C284.10077157 12.40348938 294.561427 20.16508383 304.91015625 30.38818359 C305.89048828 31.26023437 305.89048828 31.26023437 306.890625 32.14990234 C312.83994724 37.55466419 316.84216103 44.53427689 320.91015625 51.38818359 C321.40773438 52.22349609 321.9053125 53.05880859 322.41796875 53.91943359 C325.17581221 58.98415239 326.94092024 64.2620172 328.59765625 69.76318359 C328.80036133 70.43454346 329.00306641 71.10590332 329.21191406 71.79760742 C332.06592682 81.80690175 333.20934969 91.73338051 333.17085266 102.11894226 C333.17467821 103.23609409 333.17850376 104.35324591 333.18244523 105.50425082 C333.19268939 109.21390189 333.18879944 112.92339569 333.18481445 116.63305664 C333.18916574 119.30672205 333.1942866 121.98037629 333.20030212 124.65403748 C333.21300159 131.14321233 333.21484869 137.63234572 333.21250186 144.12153091 C333.21071283 149.40190044 333.21248085 154.68225747 333.2167263 159.9626255 C333.21732149 160.71654031 333.21791668 161.47045513 333.21852991 162.24721584 C333.21974177 163.779238 333.2209559 165.31126016 333.22217228 166.84328232 C333.23302999 181.18689185 333.23089401 195.53047784 333.22478744 209.87408868 C333.21962259 222.96305353 333.23086545 236.05194385 333.24988566 249.14089396 C333.26931307 262.61450083 333.27751131 276.08807254 333.2737624 289.56169349 C333.27185743 297.11244492 333.27426863 304.66313299 333.28847694 312.21387291 C333.30045461 318.64372931 333.30172491 325.07348337 333.28968678 331.50334134 C333.28384181 334.77641279 333.28423649 338.04926129 333.29468918 341.32232666 C333.3911094 373.88083706 327.29069253 402.07853463 304.25390625 426.16552734 C289.91167525 439.85392134 272.35774651 448.72795421 252.91015625 452.38818359 C252.05456965 452.55706683 251.19898306 452.72595007 250.3174696 452.89995098 C238.03873471 454.99062316 225.71348835 454.6767075 213.29614258 454.6628418 C210.71409966 454.66719488 208.13205804 454.67238001 205.55001831 454.67832947 C199.29172271 454.69101004 193.03347015 454.69287844 186.77516387 454.6905292 C181.68126274 454.68873807 176.58737455 454.69051264 171.49347496 454.69475365 C170.76538683 454.69534884 170.03729869 454.69594402 169.28714728 454.69655725 C167.80747265 454.69776915 166.32779802 454.69898328 164.84812339 454.70019963 C151.00375112 454.71105001 137.15940327 454.70892482 123.31502964 454.70281478 C110.68989863 454.69765033 98.06484487 454.70889307 85.43972913 454.727913 C72.43387417 454.74735419 59.42805564 454.75553628 46.42218608 454.75178975 C39.13744257 454.74988688 31.85276476 454.75227508 24.56803322 454.76650429 C17.71179587 454.77976244 10.85571457 454.77707336 3.99947739 454.7640934 C1.49669402 454.76174293 -1.0061004 454.76440676 -3.50887108 454.77271652 C-34.26381765 454.86739124 -61.78416487 450.42346502 -86.08984375 430.38818359 C-86.87746094 429.77587891 -87.66507813 429.16357422 -88.4765625 428.53271484 C-109.71860536 411.1461213 -118.0400746 383.76473193 -120.81231737 357.58178258 C-121.64374369 348.01425157 -121.5050739 338.40493432 -121.47802734 328.80981445 C-121.48210487 326.33968373 -121.48745329 323.86955484 -121.49395752 321.39942932 C-121.50609838 315.44814461 -121.50448645 309.49696485 -121.4957196 303.54568332 C-121.48888305 298.69992105 -121.48805175 293.85419049 -121.49129105 289.00842476 C-121.49175075 288.31295118 -121.49221044 287.61747759 -121.49268407 286.90092905 C-121.49364346 285.48713242 -121.4946161 284.07333579 -121.49560185 282.65953917 C-121.50411094 269.47170112 -121.49439225 256.28392613 -121.47820075 243.09609843 C-121.46479869 231.83234467 -121.46713349 220.56868373 -121.48095703 209.30493164 C-121.49708758 196.15563342 -121.50329049 183.00639012 -121.49412024 169.85708338 C-121.49316481 168.44943115 -121.49222169 167.04177891 -121.49129105 165.63412666 C-121.49082822 164.94192304 -121.49036539 164.24971941 -121.48988854 163.53653992 C-121.48732117 158.7080157 -121.49162029 153.87952695 -121.49872971 149.05100822 C-121.50812517 142.52788006 -121.5012384 136.00488442 -121.48404694 129.48177147 C-121.48012305 127.10602351 -121.48114452 124.73026066 -121.48783493 122.35451889 C-121.57760584 87.20229369 -116.29242731 54.87025121 -90.96484375 28.76318359 C-66.1421274 4.14594137 -33.38314783 -0.089614 0 0 Z M-29.08984375 82.38818359 C-29.58581055 82.83790527 -30.08177734 83.28762695 -30.59277344 83.75097656 C-51.922895 103.30253309 -60.42541529 129.00669231 -62.08984375 157.38818359 C-62.42197424 167.33012457 -62.37601331 177.28049879 -62.35849476 187.22683382 C-62.35334957 191.07451418 -62.35814922 194.9221861 -62.36126709 198.76986694 C-62.36488149 205.22306053 -62.36017376 211.67620798 -62.35058594 218.12939453 C-62.33969703 225.5429442 -62.34324041 232.95638384 -62.35423875 240.36993086 C-62.36337322 246.78921964 -62.36456733 253.20847569 -62.35936141 259.62776887 C-62.35627647 263.43816003 -62.35573492 267.24849982 -62.36243439 271.05888748 C-62.47063351 298.37541955 -62.47063351 298.37541955 -58.02734375 325.26318359 C-57.81891846 326.08415527 -57.61049316 326.90512695 -57.39575195 327.75097656 C-53.74015613 341.18173557 -47.74172982 354.23320694 -38.08984375 364.38818359 C-37.02636719 365.55027344 -37.02636719 365.55027344 -35.94140625 366.73583984 C-30.82251349 372.1151675 -25.32277267 376.37784948 -19.08984375 380.38818359 C-18.30996094 380.91283203 -17.53007813 381.43748047 -16.7265625 381.97802734 C3.25093325 394.82770955 28.63005619 395.93317948 51.72265625 396.63818359 C52.77288971 396.67488159 53.82312317 396.71157959 54.90518188 396.74938965 C74.07925198 397.41493031 93.25849246 397.59471218 112.4425621 397.63316345 C114.55251125 397.63807843 116.66243173 397.64598017 118.77236938 397.65441895 C185.82524158 399.21599488 185.82524158 399.21599488 243.91015625 370.38818359 C244.68875 369.70240234 245.46734375 369.01662109 246.26953125 368.31005859 C270.98552415 345.29861693 273.46223962 311.83400422 274.81049919 280.20962334 C275.11005616 271.72871951 275.07502973 263.24046752 275.078125 254.75537109 C275.0813547 252.62338236 275.08471991 250.49139384 275.08821106 248.35940552 C275.09414978 243.91375213 275.09605665 239.46811801 275.09545898 235.02246094 C275.09537811 230.54129974 275.10226727 226.06024162 275.1159668 221.57910156 C275.22830896 189.71275526 275.22830896 189.71275526 274.0078125 157.87646484 C273.96779806 157.19460491 273.92778362 156.51274498 273.88655663 155.81022263 C272.17065809 127.59218163 263.61298523 103.21783203 242.91015625 83.38818359 C228.89750615 71.05242559 211.85058881 64.70227695 193.59765625 61.70068359 C192.51532715 61.52134277 192.51532715 61.52134277 191.41113281 61.33837891 C174.85732902 58.8477281 158.0200981 59.21095204 141.3300817 59.18799496 C139.27477308 59.18502667 137.21946956 59.1809156 135.16416359 59.17649078 C128.68164628 59.16287178 122.1991412 59.15317901 115.71661061 59.14928889 C108.33028405 59.14482721 100.94414429 59.12734381 93.55787438 59.0982883 C87.78392558 59.07639403 82.01002822 59.06657006 76.23603851 59.06524777 C72.81758563 59.0642189 69.39930943 59.05873744 65.98090172 59.04042816 C33.65405835 58.89326262 -3.72581439 59.07245214 -29.08984375 82.38818359 Z " fill="#BD5A88" transform="translate(143.08984375,25.61181640625)"/>
<path d="M0 0 C2.77131314 0.00199575 5.54262122 0.00004532 8.31393433 -0.00151062 C14.07376075 -0.00238334 19.83346719 0.00847022 25.59326172 0.02709961 C32.17522429 0.04827143 38.75701201 0.05176641 45.33900177 0.04553765 C51.77345698 0.0397691 58.207853 0.04557507 64.64229965 0.0567112 C67.33460094 0.06125748 70.02680455 0.06173611 72.71912003 0.06012535 C111.23035813 0.05626991 149.00906036 0.74263525 178.1640625 29.12890625 C207.2701953 58.80926608 205.39607494 102.74896206 205.41015625 141.26171875 C205.41338683 143.39564026 205.41675208 145.52956157 205.42024231 147.66348267 C205.42617237 152.10557568 205.42808869 156.54764942 205.42749023 160.98974609 C205.4274092 165.47090714 205.43432655 169.95196547 205.44799805 174.43310547 C205.57726642 217.5117232 205.57726642 217.5117232 204.35546875 236.71484375 C204.23887154 238.54926529 204.23887154 238.54926529 204.11991882 240.42074585 C202.39742381 264.06751025 196.681331 287.48100683 180.2421875 305.36328125 C179.56671875 306.11867188 178.89125 306.8740625 178.1953125 307.65234375 C155.60012328 331.64942427 124.80382303 335.59375426 93.6171875 337.43359375 C92.5205415 337.49874302 92.5205415 337.49874302 91.40174103 337.56520844 C75.3341086 338.4988507 59.29460694 338.68164189 43.2036171 338.6210289 C40.94664662 338.6131217 38.6896897 338.60864565 36.43270874 338.60488892 C17.29675873 338.56792899 -1.82365531 338.34796075 -20.9453125 337.55078125 C-21.84342651 337.51593628 -22.74154053 337.48109131 -23.66687012 337.44519043 C-55.67231503 336.14696743 -83.60469217 329.72720389 -106.7578125 306.36328125 C-107.41136719 305.74324219 -108.06492187 305.12320312 -108.73828125 304.484375 C-128.30472526 284.47018628 -131.91267468 251.73805777 -131.90307617 225.35913086 C-131.90607703 223.99904286 -131.90948165 222.63895571 -131.91325378 221.27886963 C-131.92200604 217.61932566 -131.92442822 213.95980515 -131.92506957 210.30025172 C-131.92578535 208.00247317 -131.92792959 205.7047004 -131.93056679 203.40692329 C-131.93979283 195.35794834 -131.94390533 187.30898983 -131.94311523 179.26000977 C-131.94251593 171.81086679 -131.95304586 164.36179658 -131.9688589 156.91267198 C-131.98202957 150.47396637 -131.98729514 144.03528425 -131.98665982 137.59656531 C-131.98640752 133.77034884 -131.98910772 129.94419709 -131.99983788 126.11799431 C-132.09632002 89.10064578 -130.13788382 54.95555427 -102.9453125 27.11328125 C-93.47114064 17.73704014 -83.21837176 12.07364651 -70.7578125 7.36328125 C-69.74976563 6.98171875 -68.74171875 6.60015625 -67.703125 6.20703125 C-46.27097656 -0.84794031 -22.27978914 -0.08456905 0 0 Z M-38.97412109 31.23706055 C-39.83582224 31.31254277 -40.69752338 31.388025 -41.58533669 31.46579456 C-60.1416994 33.33467526 -75.29337904 40.48977556 -87.73046875 54.6015625 C-104.68708023 76.7755929 -101.9183778 107.86225232 -101.92578125 134.14453125 C-101.92720885 135.48349527 -101.92880569 136.82245911 -101.93056679 138.16142273 C-101.93977619 145.17760645 -101.9439075 152.19377138 -101.94311523 159.20996094 C-101.94251657 165.67809129 -101.95303818 172.14613768 -101.9688589 178.61424685 C-101.98207959 184.22590656 -101.9872931 189.83753935 -101.98665982 195.44921446 C-101.98640893 198.77474746 -101.98999905 202.10014719 -101.99983788 205.42567444 C-103.10086426 249.43212419 -103.10086426 249.43212419 -83.5078125 287.23828125 C-54.43598142 314.41412335 -7.55502896 307.5334799 29.28833008 307.49365234 C34.60733518 307.48795922 39.92629023 307.49134168 45.24529362 307.49708652 C105.18572144 310.71680321 105.18572144 310.71680321 157.328125 286.4296875 C178.9443865 263.72789321 175.40619278 225.17252123 175.375 196.30078125 C175.37567644 194.04939768 175.37664927 191.79801418 175.37789917 189.54663086 C175.37936016 184.86408787 175.37727368 180.18156416 175.37255859 175.49902344 C175.36686233 169.55924443 175.37015 163.61951064 175.37613106 157.67973328 C175.37978024 153.04145988 175.37857829 148.40319684 175.37600327 143.7649231 C175.37534599 141.57732131 175.37611935 139.38971852 175.37848282 137.20211792 C175.38756216 126.44266153 175.30057262 115.70289046 174.81201172 104.953125 C174.77538485 104.12361832 174.73875797 103.29411163 174.70102119 102.43946838 C173.6239523 81.36340652 168.60548674 61.61893882 152.87890625 46.62109375 C130.32910478 27.31178227 97.03323184 30.20312366 69.328125 30.1953125 C67.98882656 30.19388466 66.6495283 30.19228777 65.31023026 30.19052696 C58.29519476 30.18132332 51.28017805 30.17718571 44.26513672 30.17797852 C37.79639763 30.17857773 31.32774234 30.16804357 24.85902441 30.15223485 C19.24651091 30.13902295 13.63402433 30.13380026 8.02149546 30.13443393 C4.69545033 30.13468498 1.36953843 30.13108745 -1.95650101 30.12125587 C-14.32987079 30.08810276 -26.64106667 30.14824732 -38.97412109 31.23706055 Z " fill="#FEFDFD" transform="translate(212.7578125,84.63671875)"/>
<path d="M0 0 C16.79268892 13.33200768 28.89789128 32.74617503 32.0625 54.125 C33.97200759 80.91970327 29.69894472 104.19557458 12.0625 125.125 C-3.90163987 143.32259664 -26.09066438 153.61829743 -50.234375 155.36328125 C-71.28955685 155.81582475 -91.68815448 149.74577492 -107.9375 136.125 C-108.43765625 135.70702148 -108.9378125 135.28904297 -109.453125 134.85839844 C-116.37313552 129.00465192 -122.26187096 122.9583406 -126.9375 115.125 C-127.60523438 114.03832031 -128.27296875 112.95164062 -128.9609375 111.83203125 C-140.42673563 92.38967857 -143.76061699 68.5349688 -138.4375 46.5 C-134.63670389 33.79945245 -128.23440336 22.42574629 -119.9375 12.125 C-119.1640625 11.1453125 -118.390625 10.165625 -117.59375 9.15625 C-88.5708829 -25.36308046 -34.34647773 -26.00381789 0 0 Z " fill="#FEFDFD" transform="translate(302.9375,184.875)"/>
<path d="M0 0 C12.5906753 8.76446709 21.71556167 21.56337029 25 36.6875 C25.89990723 48.29568261 26.12727913 60.02985375 21 70.6875 C20.61070312 71.59113281 20.22140625 72.49476563 19.8203125 73.42578125 C13.3310767 86.99941945 1.15277881 96.83317983 -12.75 102.0625 C-25.72121898 105.72459978 -41.82950475 105.71905426 -54 99.6875 C-55.0003125 99.20152344 -56.000625 98.71554687 -57.03125 98.21484375 C-71.58221508 90.44330558 -80.32401316 78.97996473 -85.23828125 63.44921875 C-89.40119525 48.35598696 -87.28342923 33.88360556 -80.3125 20 C-72.20957038 6.08321837 -59.63649636 -2.95651986 -44.26171875 -7.390625 C-29.06683108 -11.03732754 -13.28149812 -7.96524509 0 0 Z " fill="#DE3660" transform="translate(280,205.3125)"/>
<path d="M0 0 C4.01952184 3.71634622 6.99884195 8.46615806 8.08203125 13.85546875 C8.27890466 19.01892141 7.33380708 24.05980002 4.60546875 28.484375 C0.49733075 32.90918197 -3.11802616 36.21753013 -9.3203125 36.72265625 C-20.67133657 36.97140995 -20.67133657 36.97140995 -25.39453125 32.484375 C-30.20145597 27.5559269 -32.46010527 23.42993662 -32.70703125 16.546875 C-32.56735132 10.66285781 -30.92392606 7.21500597 -27.01953125 2.796875 C-19.28328508 -4.01838948 -9.07110091 -5.94685001 0 0 Z " fill="#FEFDFE" transform="translate(351.39453125,146.515625)"/>
</svg>
