<?xml version="1.0" standalone="no"?>
<!DOCTYPE svg PUBLIC "-//W3C//DTD SVG 20010904//EN"
 "http://www.w3.org/TR/2001/REC-SVG-20010904/DTD/svg10.dtd">
<svg version="1.0" xmlns="http://www.w3.org/2000/svg"
 width="512.000000pt" height="512.000000pt" viewBox="0 0 512.000000 512.000000"
 preserveAspectRatio="xMidYMid meet">

<g transform="translate(0.000000,512.000000) scale(0.100000,-0.100000)"
fill="#000000" stroke="none">
<path d="M1305 4850 c-177 -8 -204 -11 -320 -37 -284 -64 -528 -263 -651 -528
-47 -102 -80 -235 -93 -376 -12 -130 -15 -2181 -3 -2163 4 6 15 13 25 17 9 4
16 12 15 18 -2 6 4 14 12 16 13 4 13 3 0 -6 -19 -14 -5 -14 21 0 11 5 17 14
14 19 -4 6 1 7 11 3 12 -4 15 -3 10 5 -5 8 -1 10 10 5 11 -4 15 -2 11 4 -4 6
3 9 18 7 14 -1 25 2 25 7 0 4 22 18 50 30 27 12 50 26 50 31 0 5 5 6 12 2 6
-4 8 -3 4 4 -3 6 -2 13 4 17 5 3 10 1 10 -6 0 -10 3 -10 12 -1 15 15 32 16 23
2 -9 -14 8 -13 23 2 9 9 12 8 12 -5 0 -21 3 -21 39 -2 26 13 29 13 27 -3 0 -9
5 -16 12 -14 7 1 18 -2 25 -8 61 -52 78 -69 92 -95 15 -28 15 -25 8 65 -13
153 -8 1358 5 1491 56 551 370 862 917 909 155 13 909 18 1270 9 306 -8 400
-20 550 -70 135 -45 226 -101 331 -204 164 -162 244 -339 274 -610 17 -149 24
-1096 11 -1383 -16 -360 -51 -501 -166 -678 -90 -138 -218 -250 -360 -315 -78
-35 -224 -76 -308 -85 l-61 -7 33 -29 c17 -16 36 -26 40 -24 16 10 184 -168
180 -190 0 -4 6 -11 15 -16 9 -5 13 -15 9 -25 -4 -10 -2 -14 4 -10 9 6 23 -11
27 -33 1 -3 16 -27 35 -53 18 -27 34 -54 35 -60 9 -41 19 -67 27 -67 5 0 8 -3
8 -7 -1 -5 4 -23 12 -41 13 -31 16 -32 69 -32 73 0 220 24 306 51 261 80 481
278 587 525 46 107 65 175 82 296 21 150 22 2610 1 2768 -34 252 -134 453
-305 611 -138 128 -297 208 -488 245 -43 8 -166 19 -273 24 -220 11 -2113 10
-2375 0z m-807 -2940 c-7 -10 -14 -17 -17 -15 -4 4 18 35 25 35 2 0 -1 -9 -8
-20z"/>
<path d="M1810 3960 c-218 -15 -332 -48 -444 -132 -133 -99 -200 -221 -234
-421 -15 -90 -17 -189 -17 -812 0 -390 4 -722 8 -737 4 -16 12 -28 17 -28 5 0
7 6 4 14 -3 8 0 17 5 21 6 3 9 11 6 16 -4 5 -1 9 4 9 6 0 11 9 11 20 0 11 9
25 19 32 15 9 17 15 9 25 -8 10 -6 13 6 13 9 0 16 6 16 14 0 16 27 29 41 20 5
-3 9 1 9 8 0 7 12 18 28 24 73 30 92 35 101 29 6 -3 11 -2 11 4 0 17 156 12
171 -5 7 -8 18 -13 26 -10 7 3 13 1 13 -4 0 -6 9 -10 20 -10 11 0 23 -7 26
-15 4 -8 11 -15 17 -15 15 0 101 -42 108 -52 3 -5 15 -10 26 -12 11 -3 34 -18
51 -34 17 -17 44 -33 61 -37 16 -3 32 -13 35 -21 3 -9 10 -13 15 -10 5 3 19
-2 32 -12 23 -17 82 -45 93 -44 3 1 41 -15 83 -34 43 -20 85 -38 93 -39 27 -7
145 -57 155 -66 5 -5 19 -9 31 -9 13 0 26 -5 29 -10 3 -6 18 -10 33 -10 15 0
36 -7 46 -15 10 -8 23 -12 27 -9 5 3 20 -2 33 -11 14 -9 30 -14 36 -10 5 3 26
-6 45 -21 19 -14 35 -22 35 -16 0 5 11 9 24 8 13 0 22 -4 20 -7 -4 -8 26 -35
35 -31 3 1 6 -3 6 -9 0 -5 20 -31 45 -56 33 -34 39 -44 22 -39 -28 9 -28 2 0
-24 20 -18 20 -20 4 -20 -14 0 -16 -3 -7 -13 6 -8 8 -17 4 -20 -3 -4 -1 -7 5
-7 8 0 11 -15 8 -45 -3 -28 -1 -45 6 -45 6 0 5 -7 -3 -17 -13 -15 -1 -16 166
-10 222 9 339 31 451 86 161 80 261 219 307 426 22 98 22 112 22 855 0 807 -1
818 -51 972 -32 98 -85 179 -160 246 -117 105 -246 147 -499 162 -182 11
-1171 11 -1345 0z m1692 -306 c162 -114 84 -369 -112 -369 -116 0 -200 85
-200 202 0 52 5 68 33 109 66 97 187 123 279 58z m-807 -225 c97 -23 238 -90
322 -152 74 -55 182 -179 228 -262 77 -138 109 -266 108 -435 -1 -155 -22
-244 -94 -390 -47 -95 -63 -115 -158 -211 -88 -88 -121 -113 -196 -151 -49
-25 -128 -59 -175 -74 -77 -25 -99 -28 -235 -28 -127 -1 -162 2 -229 22 -90
26 -219 88 -287 137 -118 88 -249 259 -300 394 -57 152 -69 366 -30 516 94
357 402 624 753 653 114 10 199 4 293 -19z"/>
<path d="M2370 3135 c-323 -73 -515 -412 -410 -722 63 -184 227 -334 408 -372
66 -14 192 -14 252 0 196 45 380 231 420 426 17 82 8 235 -18 308 -28 76 -101
183 -161 236 -125 111 -326 161 -491 124z"/>
<path d="M1132 1790 c0 -14 2 -19 5 -12 2 6 2 18 0 25 -3 6 -5 1 -5 -13z"/>
</g>
</svg>
