<svg width="68" height="68" viewBox="0 0 68 68" fill="none" xmlns="http://www.w3.org/2000/svg">
<path d="M67.3828 41.4404L40.7666 35.6006C40.542 36.3493 40.2051 37.0605 39.7559 37.7344L63.4521 51.5479L51.9971 63.0029L37.2852 39.9805C36.3867 40.4297 35.638 40.6917 35.0391 40.7666L42.1143 67.3828H25.9424L31.7822 40.6543C31.2581 40.5046 30.6966 40.2799 30.0977 39.9805L15.3857 63.0029L3.93066 51.5479L27.627 37.7344C27.1777 36.8359 26.8783 36.1247 26.7285 35.6006L0 41.4404V25.2686L26.6162 32.3438C26.766 31.5202 26.9906 30.734 27.29 29.9854L4.37988 15.3857L15.835 3.93066L29.5361 27.5146C30.3597 27.1403 31.1084 26.8408 31.7822 26.6162L25.9424 0H42.1143L35.0391 26.5039C36.0124 26.7285 36.9482 27.0654 37.8467 27.5146L51.5479 3.93066L63.0029 15.3857L40.0928 29.9854C40.542 30.8838 40.804 31.6699 40.8789 32.3438L67.3828 25.2686V41.4404ZM37.6221 33.6914C37.6221 31.071 36.3118 29.7607 33.6914 29.7607C31.071 29.7607 29.7607 31.071 29.7607 33.6914C29.7607 36.3118 31.071 37.6221 33.6914 37.6221C36.3118 37.6221 37.6221 36.3118 37.6221 33.6914Z" fill="#AF8A05"/>
</svg>
