<?xml version="1.0" encoding="UTF-8"?>
<svg version="1.1" xmlns="http://www.w3.org/2000/svg" width="512" height="512">
<path d="M0 0 C0.96494385 0.00021149 1.9298877 0.00042297 2.92407227 0.00064087 C18.83060339 0.0353275 34.08622663 1.04865983 49.6875 4.375 C51.01297852 4.64787842 51.01297852 4.64787842 52.36523438 4.92626953 C105.28879944 16.10013167 155.87147315 47.06267044 188.6875 90.375 C189.09742188 90.90319336 189.50734375 91.43138672 189.9296875 91.97558594 C221.266459 132.42134501 238.18173603 181.3421494 239.6875 232.375 C239.749375 234.05142578 239.749375 234.05142578 239.8125 235.76171875 C240.95193754 294.79882641 218.62439819 352.38746343 179.6875 396.375 C178.90503906 397.26832031 178.12257813 398.16164063 177.31640625 399.08203125 C169.07719216 408.37792097 160.43906613 416.67570717 150.6875 424.375 C149.74648438 425.14457031 148.80546875 425.91414063 147.8359375 426.70703125 C98.00555117 466.55846424 33.77361527 482.12477476 -29.09130859 475.59887695 C-33.53703479 475.02890183 -37.92095356 474.26843882 -42.3125 473.375 C-43.31587402 473.17100586 -44.31924805 472.96701172 -45.35302734 472.75683594 C-67.17672107 468.16694536 -89.726494 461.52819389 -109.17285061 450.30093575 C-115.02197936 447.76971852 -123.09514294 450.90975615 -128.99975586 452.48876953 C-129.8176207 452.70200363 -130.63548553 452.91523773 -131.47813416 453.13493347 C-134.16282995 453.83651522 -136.84506108 454.54706598 -139.52734375 455.2578125 C-141.42503693 455.75580972 -143.32287201 456.25326651 -145.22084045 456.75021362 C-150.21820792 458.06033588 -155.21350591 459.37818764 -160.20843506 460.6975708 C-164.21288533 461.75402953 -168.21870338 462.80523983 -172.22463036 463.85608292 C-194.51028284 469.68235044 -194.51028284 469.68235044 -216.75048828 475.67871094 C-217.9686171 476.01216522 -219.18674591 476.34561951 -220.44178772 476.68917847 C-222.60394214 477.28376384 -224.76461152 477.88379238 -226.92332458 478.49075317 C-228.30814781 478.87213943 -228.30814781 478.87213943 -229.72094727 479.26123047 C-230.49720963 479.47891083 -231.27347198 479.69659119 -232.07325745 479.92086792 C-234.5362781 480.42038357 -236.8058738 480.4538457 -239.3125 480.375 C-236.48755199 467.76476896 -233.17240603 455.31822014 -229.70409393 442.87099648 C-228.77588944 439.5379246 -227.85264289 436.20351403 -226.9307251 432.86869812 C-224.31286377 423.40144142 -221.68852794 413.9359961 -219.05566406 404.47290039 C-217.43652303 398.65201985 -215.8248386 392.82911768 -214.2178421 387.00487328 C-213.60669154 384.7956994 -212.99267822 382.58731537 -212.37572479 380.37975502 C-211.51658171 377.30494878 -210.66691887 374.22766777 -209.81933594 371.1496582 C-209.56379944 370.24416229 -209.30826294 369.33866638 -209.04498291 368.4057312 C-206.8115721 360.33777055 -206.8115721 360.33777055 -208.7109375 352.38671875 C-209.36320312 351.28972656 -210.01546875 350.19273437 -210.6875 349.0625 C-223.81426493 325.78771308 -231.08803064 299.60895471 -235.3125 273.375 C-235.49039063 272.32505859 -235.49039063 272.32505859 -235.671875 271.25390625 C-245.17926304 213.19092928 -228.93944179 149.61620172 -195.203125 101.89453125 C-192.34490973 97.96897857 -189.3540028 94.15939251 -186.3125 90.375 C-185.89387695 89.84213379 -185.47525391 89.30926758 -185.04394531 88.76025391 C-171.7056607 71.82925497 -155.95184835 56.72993464 -138.3125 44.375 C-137.61511719 43.87597168 -136.91773438 43.37694336 -136.19921875 42.86279297 C-117.71494491 29.68810144 -97.75469537 19.74394253 -76.3125 12.375 C-75.62172363 12.13201172 -74.93094727 11.88902344 -74.21923828 11.63867188 C-65.88740084 8.73236137 -57.42251892 6.60515393 -48.8125 4.6875 C-47.91160645 4.48487549 -47.01071289 4.28225098 -46.08251953 4.07348633 C-30.71450835 0.78973496 -15.66189813 -0.03177981 0 0 Z M-84.3125 60.375 C-85.09995605 60.76059082 -85.88741211 61.14618164 -86.69873047 61.54345703 C-132.66214938 84.2187437 -168.53021879 124.78511409 -185.51269531 173.15332031 C-203.11688274 225.08157922 -198.74816383 279.62010655 -174.73828125 328.77734375 C-172.01759598 334.12053942 -168.80405101 339.15789012 -165.32299805 344.0378418 C-163.20117345 347.16216255 -162.26912315 348.87014713 -162.59703064 352.68658447 C-163.26800494 356.14561734 -164.05601906 359.5075468 -164.98657227 362.90527344 C-165.32684952 364.15636902 -165.66712677 365.4074646 -166.01771545 366.69647217 C-166.1988344 367.35458641 -166.37995335 368.01270065 -166.56656075 368.69075775 C-167.13766162 370.76619286 -167.70349741 372.84300212 -168.26805115 374.92022705 C-169.46569638 379.32309941 -170.67000004 383.7241358 -171.875 388.125 C-173.27532594 393.2407741 -174.67290463 398.35727275 -176.06434441 403.4754715 C-176.62184227 405.52095691 -177.18392991 407.56514462 -177.74623108 409.60931396 C-178.25191872 411.46704437 -178.25191872 411.46704437 -178.76782227 413.36230469 C-179.06680923 414.45371765 -179.3657962 415.54513062 -179.67384338 416.6696167 C-180.42737684 419.39833361 -180.42737684 419.39833361 -180.3125 422.375 C-173.20092471 421.80294653 -166.60672799 419.9032806 -159.76514244 417.93754768 C-156.19693797 416.91870402 -152.61818265 415.9379882 -149.04101562 414.95117188 C-144.51186912 413.7003607 -139.98693759 412.43842008 -135.47387695 411.13061523 C-131.80425692 410.06831702 -128.12514607 409.04791146 -124.43647194 408.05389214 C-123.0429985 407.67044531 -121.65349816 407.27221388 -120.26874352 406.85838509 C-109.50312079 403.65326934 -109.50312079 403.65326934 -104.14323425 405.41915894 C-101.38464636 406.91732387 -98.86657025 408.55434995 -96.3125 410.375 C-75.17477867 421.32321505 -54.64288316 428.7886462 -31.3125 433.375 C-29.41757812 433.74818359 -29.41757812 433.74818359 -27.484375 434.12890625 C14.82935646 440.79285294 58.28239558 431.39136786 95.6875 411.375 C96.30109375 411.04886719 96.9146875 410.72273438 97.546875 410.38671875 C106.16474184 405.76474316 114.05763373 400.49686914 121.6875 394.375 C122.71359375 393.55386719 123.7396875 392.73273438 124.796875 391.88671875 C138.31155102 380.86109746 150.47561297 368.52637804 160.6875 354.375 C161.10306152 353.80378418 161.51862305 353.23256836 161.94677734 352.64404297 C185.97201211 319.23351181 198.16116364 279.41281057 198.0625 238.4375 C198.06195618 237.58327454 198.06141235 236.72904907 198.06085205 235.84893799 C198.01959836 221.70354151 197.04151291 208.16627226 193.6875 194.375 C193.47319336 193.4773291 193.25888672 192.5796582 193.03808594 191.65478516 C185.17323602 159.66304848 169.41200151 130.98064728 147.6875 106.375 C146.6046875 105.10849609 146.6046875 105.10849609 145.5 103.81640625 C141.22445244 98.86445371 136.68985525 94.57765901 131.6875 90.375 C130.76453125 89.55257812 129.8415625 88.73015625 128.890625 87.8828125 C103.77316877 65.65536478 72.37080435 51.18002818 39.6875 44.375 C38.51888428 44.1272583 38.51888428 44.1272583 37.32666016 43.87451172 C-3.15680012 35.70004814 -47.51470705 42.0935519 -84.3125 60.375 Z " fill="#FFFFFF" transform="translate(239.3125,-0.375)"/>
<path d="M0 0 C1.08925781 -0.03738281 2.17851562 -0.07476562 3.30078125 -0.11328125 C11.23191352 -0.2006499 11.23191352 -0.2006499 15.0703125 2.2734375 C21.25072078 11.60279904 25.05464602 22.23911323 29.25 32.5625 C30.18330919 34.84884142 31.11771091 37.13473327 32.05245972 39.42048645 C32.62900732 40.83140921 33.20454038 42.24274717 33.77883911 43.65458679 C35.08399644 46.85856452 36.40985719 50.0502708 37.78344727 53.22558594 C39.67554867 57.66746184 40.43649857 60.65918598 39.125 65.375 C35.46893075 71.58734531 30.93600055 77.12758384 26.421875 82.73046875 C26.00349365 83.26115967 25.5851123 83.79185059 25.15405273 84.33862305 C24.00269754 85.79266242 22.82434151 87.22520247 21.64453125 88.65625 C19.89415583 91.27647864 19.89415583 91.27647864 20.1015625 94.265625 C21.39929726 98.20836114 23.32172067 101.23990127 25.6875 104.625 C26.13859131 105.28395264 26.58968262 105.94290527 27.05444336 106.62182617 C36.96503469 120.94801018 48.56307664 134.84284516 62.625 145.25 C63.31932129 145.7646582 64.01364258 146.27931641 64.72900391 146.80957031 C74.50215051 153.94833213 84.6246815 159.8867701 95.625 164.9375 C96.7375415 165.45812012 96.7375415 165.45812012 97.87255859 165.98925781 C102.40453394 167.98820645 106.09122127 169.13549894 111.125 168.375 C113.67366094 166.60789578 113.67366094 166.60789578 115.75 163.9375 C116.59046875 162.95007813 117.4309375 161.96265625 118.296875 160.9453125 C122.20893166 156.07628932 125.97731976 151.08453058 129.65869141 146.03930664 C130.44252197 144.98151001 130.44252197 144.98151001 131.2421875 143.90234375 C131.70222168 143.27062256 132.16225586 142.63890137 132.63623047 141.98803711 C134.46452057 140.00713965 135.52763492 139.1778269 138.125 138.375 C144.22444296 138.62610906 148.81692888 140.25356042 154.25390625 142.91015625 C155.00606918 143.26710068 155.75823212 143.6240451 156.53318787 143.99180603 C158.11980206 144.74727552 159.70384674 145.50816286 161.28540039 146.27416992 C163.65174971 147.42018623 166.02506958 148.55045081 168.40039062 149.67773438 C175.89003195 153.24970214 183.31732769 156.92819099 190.65234375 160.80859375 C191.27992081 161.13884048 191.90749786 161.46908722 192.55409241 161.80934143 C195.06682975 163.15696815 197.09644168 164.34644168 199.125 166.375 C200.37366645 178.15021506 199.39729907 191.86716038 192.4375 201.8125 C191.36971893 203.03282122 190.26383496 204.22070575 189.125 205.375 C188.53460938 206.014375 187.94421875 206.65375 187.3359375 207.3125 C182.62929038 211.96462997 177.35132358 215.14452102 171.5625 218.25 C170.85440186 218.63148193 170.14630371 219.01296387 169.41674805 219.40600586 C151.01365392 228.8878085 129.62509961 226.11368576 110.58032227 220.11767578 C78.62095211 209.62496432 51.46242928 194.3193799 26.6015625 171.62890625 C24.92247795 170.1007804 23.22919177 168.58814142 21.5234375 167.08984375 C17.00702882 163.11240227 12.81003544 159.09978754 8.9375 154.4921875 C7.66407758 153.00469839 6.34696029 151.55405368 5 150.1328125 C-19.93503822 123.80338069 -43.76674643 89.70675958 -43.15234375 52.15234375 C-42.41095232 33.88313102 -33.9648729 17.88986557 -20.875 5.375 C-13.83290916 0.19699203 -8.48051164 0.10961883 0 0 Z " fill="#FFFFFF" transform="translate(161.875,127.625)"/>
</svg>
