<?xml version="1.0" encoding="UTF-8"?>
<svg version="1.1" xmlns="http://www.w3.org/2000/svg" width="512" height="512">
<path d="M0 0 C4.94561121 0.00753691 9.89114216 0.00481021 14.83675045 -0.00360447 C151.74655795 -0.23047179 151.74655795 -0.23047179 190.05623287 5.68291897 C191.2298563 5.86285648 191.2298563 5.86285648 192.42718929 6.0464291 C209.77358862 8.89937448 225.43640556 17.69927461 235.88826412 31.93291897 C256.56824442 64.64982435 255.03867706 112.51654999 255.12654537 149.90166897 C255.13352249 151.74999175 255.14056347 153.5983143 255.14766353 155.44663662 C255.16694568 161.32097332 255.17183805 167.19527282 255.17342037 173.06963772 C255.17430408 174.56546886 255.17430408 174.56546886 255.17520565 176.09151882 C255.19993381 235.30743427 255.19993381 235.30743427 251.92342037 264.25713772 C251.70661617 266.18952297 251.70661617 266.18952297 251.48543209 268.16094631 C248.77102242 290.75697898 243.38427466 311.7379116 226.92342037 328.25713772 C226.38201412 328.82174709 225.84060787 329.38635647 225.28279537 329.96807522 C209.33493852 345.19102948 185.58665174 346.12567793 164.92342037 347.25713772 C164.17350826 347.29860927 163.42359615 347.34008083 162.65095943 347.3828091 C156.61769198 347.7138469 150.58343732 348.02231259 144.54842037 348.31963772 C143.73617 348.36002163 142.92391964 348.40040554 142.08705562 348.4420132 C113.10031117 349.85901301 84.11508139 350.41642442 55.09746784 350.39146322 C51.06585937 350.3888456 47.03425261 350.39130258 43.002644 350.39284939 C36.23632302 350.39464638 29.47001309 350.39233276 22.70369381 350.38750881 C15.86449381 350.38268745 9.02531566 350.38268314 2.18611568 350.38750881 C-71.74428829 350.43827343 -71.74428829 350.43827343 -107.07657963 349.25713772 C-108.32572148 349.21697536 -109.57486332 349.17681301 -110.86185795 349.13543361 C-116.99195681 348.93480449 -123.11999488 348.70590578 -129.24747807 348.43706936 C-132.0392151 348.31583195 -134.83126526 348.2053093 -137.62345463 348.09502834 C-146.9010842 347.71058223 -156.14590856 347.15787595 -165.39298588 346.30401272 C-166.23340428 346.22800335 -167.07382267 346.15199398 -167.93970829 346.07368129 C-184.6812702 344.42838516 -200.81516694 339.98424419 -214.07657963 329.25713772 C-214.84872807 328.63452053 -215.62087651 328.01190334 -216.41642338 327.37041897 C-226.2364637 318.55756227 -230.73568335 306.38815612 -234.38907963 294.00713772 C-234.73458866 292.85036525 -234.73458866 292.85036525 -235.08707768 291.67022365 C-239.33363611 276.16755823 -240.63907524 259.78967957 -241.74454838 243.80791897 C-241.80747767 242.92098165 -241.87040695 242.03404434 -241.93524319 241.12023014 C-243.36844571 220.50641954 -243.49872242 199.92759853 -243.39915043 179.27288479 C-243.3856851 175.49133124 -243.39100137 171.70989478 -243.39601856 167.92832798 C-243.41471051 149.19267871 -243.17152251 130.50240522 -242.14298588 111.79229397 C-242.10160307 111.03602403 -242.06022026 110.2797541 -242.01758343 109.5005669 C-240.28364313 78.63913871 -237.38671372 42.98893913 -213.66251713 20.47588772 C-197.79590585 6.86223936 -175.30479449 4.25087639 -155.1139484 3.40595669 C-154.28907429 3.37143304 -153.46420017 3.33690939 -152.61432987 3.30133957 C-101.72775154 1.21319743 -50.92724307 -0.08657618 0 0 Z " fill="#DD2C28" transform="translate(249.0765796303749,96.7428622841835)"/>
<path d="M0 0 C4.28535879 1.42845293 7.58542212 2.70109959 11.46484375 4.80078125 C12.49963867 5.35878418 13.53443359 5.91678711 14.60058594 6.49169922 C15.70176758 7.09256348 16.80294922 7.69342773 17.9375 8.3125 C19.09411133 8.93914551 20.25072266 9.56579102 21.44238281 10.21142578 C29.69300446 14.6912439 37.86586843 19.30282762 46.02001953 23.95556641 C54.04247691 28.51018984 62.16402316 32.8641895 70.3125 37.1875 C80.40046304 42.54050092 90.43701571 47.96729413 100.40039062 53.54931641 C105.5534783 56.42494065 110.72122387 59.27414641 115.88790894 62.12524414 C117.7466925 63.15117831 119.60493453 64.1780879 121.46313477 65.20507812 C129.28124449 69.52214657 137.12822243 73.78177624 145 78 C142.58451251 80.70715008 140.02738043 82.21429696 136.828125 83.8984375 C135.78366211 84.45321777 134.73919922 85.00799805 133.66308594 85.57958984 C131.9736084 86.46831787 131.9736084 86.46831787 130.25 87.375 C127.8625596 88.64205003 125.47779197 89.91406879 123.09375 91.1875 C122.49125427 91.50899017 121.88875854 91.83048035 121.26800537 92.16171265 C115.70694899 95.1381466 110.22380247 98.24192961 104.75 101.375 C95.28089526 106.78140315 85.68936252 111.92857927 76.05432129 117.0302124 C67.79986359 121.40362592 59.60964393 125.86136764 51.5 130.5 C42.47744168 135.65714118 33.35854925 140.61363802 24.1875 145.5 C23.55070312 145.83974854 22.91390625 146.17949707 22.2578125 146.52954102 C14.8865697 150.45889516 7.47412006 154.26293997 0 158 C0 105.86 0 53.72 0 0 Z " fill="#FDFCFC" transform="translate(203,186)"/>
</svg>
